<?xml version="1.0" encoding="UTF-8"?>
<svg id="Layer_1" xmlns="http://www.w3.org/2000/svg" version="1.1" viewBox="0 0 100 100">
  <!-- Generator: Adobe Illustrator 30.4.0, SVG Export Plug-In . SVG Version: 2.1.4 Build 226)  -->
  <defs>
    <style>
      .st0 {
        fill: none;
      }

      .st1 {
        fill: #ebe6df;
      }
    </style>
  </defs>
  <g id="Group_172">
    <path id="Path_36" class="st1" d="M50.24,97.38c-8.94,0-16.85-.14-20.65-.35-8.75-.44-14.45-2.61-19.09-7.26s-6.82-10.35-7.23-19.06c-.47-8.33-.47-33.03,0-41.33.44-8.76,2.6-14.47,7.22-19.09,4.61-4.62,10.47-6.82,19.06-7.22,3.83-.21,11.74-.35,20.69-.35s16.85.14,20.65.35c8.76.44,14.46,2.61,19.08,7.22,4.62,4.62,6.81,10.35,7.22,19.06v.03c.47,8.26.47,32.94,0,41.27-.44,8.77-2.61,14.47-7.22,19.09l-.02.05c-4.64,4.63-10.34,6.79-19.05,7.23-3.82.22-11.73.35-20.67.35M50.22,94.57c1.05,0,2.23,0,3.52.03h.04c1.49.02,3.53.04,5.6.04,11.02,0,17.73-.71,21.77-2.32,2.56-1.01,4.89-2.53,6.85-4.47,1.98-1.96,3.52-4.31,4.51-6.91,2.32-5.8,2.39-16.69,2.27-27.36,0-.71,0-1.39-.02-2.04v-1.54c0-1.03,0-2.21.03-3.52v-.04c.13-10.65.05-21.55-2.27-27.4-1.02-2.56-2.54-4.89-4.49-6.85l-.04.02c-1.96-1.94-4.3-3.46-6.87-4.47-4.08-1.59-10.87-2.3-22.06-2.3-1.92,0-3.75.02-5.33.04-.69,0-1.35,0-1.98.02h-1.53c-1.05,0-2.23,0-3.52-.03h-.04c-1.48,0-3.54-.03-5.61-.03-11.02,0-17.73.71-21.77,2.32-2.56,1.01-4.89,2.53-6.84,4.46-1.98,1.96-3.52,4.31-4.51,6.91-2.44,6.21-2.34,18.3-2.27,27.13v.29c0,.68,0,1.35.02,1.98v1.49c0,1.02,0,2.17-.03,3.43v.34c-.07,8.83-.16,20.93,2.27,27.13,1.01,2.57,2.54,4.91,4.48,6.87,1.96,1.98,4.31,3.52,6.91,4.52,4.07,1.59,10.87,2.31,22.07,2.31,1.92,0,3.75-.02,5.32-.04.69,0,1.35,0,1.98-.02h1.53"/>
    <g id="Group_170">
      <g id="Group_162">
        <g id="Path_32">
          <path class="st0" d="M39.86,55.68v27.6h15.05v-27.6h11.22l2.33-12.69h-13.57v-4.49c0-6.71,2.63-9.28,9.43-9.28,2.11,0,3.81.05,4.8.15v-11.51c-2.96-.63-5.98-.98-9.01-1.03-13.88,0-20.27,6.55-20.27,20.68v5.46h-8.56v12.69h8.56Z"/>
          <path class="st1" d="M54.91,83.27v-27.6h11.22l2.34-12.69h-13.56v-4.49c0-6.71,2.63-9.28,9.43-9.28,2.11,0,3.81.05,4.8.16v-11.51c-1.86-.51-6.4-1.03-9.02-1.03-13.87,0-20.27,6.55-20.27,20.68v5.46h-8.56v12.69h8.56v27.6h15.05M58.07,86.43h-21.36v-27.6h-8.56v-19h8.56v-2.31c0-8,1.91-13.84,5.83-17.85,3.95-4.03,9.7-5.99,17.59-5.99,2.92,0,7.71.55,9.85,1.14l2.32.63v17.42l-3.49-.37c-.49-.05-1.72-.14-4.47-.14-2.53,0-4.23.41-5.06,1.22-.82.81-1.22,2.41-1.22,4.9v1.33h14.19l-3.5,19h-10.7v27.6Z"/>
        </g>
      </g>
    </g>
  </g>
</svg>