<?xml version="1.0" encoding="UTF-8"?>
<svg id="Layer_1" xmlns="http://www.w3.org/2000/svg" version="1.1" viewBox="0 0 100 100">
  <!-- Generator: Adobe Illustrator 30.4.0, SVG Export Plug-In . SVG Version: 2.1.4 Build 226)  -->
  <defs>
    <style>
      .st0 {
        fill: #ebe6df;
      }
    </style>
  </defs>
  <g id="Group_164">
    <g id="Group_169">
      <path id="Path_33" class="st0" d="M50.24,97.38c-8.94,0-16.85-.14-20.65-.35-8.75-.44-14.45-2.61-19.09-7.26s-6.82-10.35-7.23-19.06c-.47-8.33-.47-33.03,0-41.33.44-8.76,2.6-14.47,7.22-19.09,4.61-4.62,10.47-6.82,19.06-7.22,3.83-.21,11.74-.35,20.69-.35s16.85.14,20.65.35c8.76.44,14.46,2.61,19.08,7.22,4.62,4.62,6.81,10.35,7.22,19.06v.03c.47,8.26.47,32.94,0,41.27-.44,8.77-2.61,14.47-7.22,19.09l-.02.05c-4.64,4.63-10.34,6.79-19.05,7.23-3.82.22-11.73.35-20.67.35M50.23,94.57c1.05,0,2.23,0,3.52.03h.04c1.49.02,3.53.04,5.6.04,11.02,0,17.73-.71,21.77-2.32,2.56-1.01,4.89-2.53,6.85-4.47,1.98-1.96,3.52-4.31,4.51-6.91,2.32-5.8,2.39-16.69,2.27-27.36,0-.71,0-1.39-.02-2.04v-1.54c0-1.03,0-2.21.03-3.52v-.04c.13-10.65.05-21.55-2.27-27.4-1.02-2.56-2.54-4.89-4.49-6.85l-.04.02c-1.96-1.94-4.3-3.46-6.87-4.47-4.08-1.59-10.87-2.3-22.06-2.3-1.92,0-3.75.02-5.33.04-.69,0-1.35,0-1.98.02h-1.53c-1.05,0-2.23,0-3.52-.03h-.04c-1.48,0-3.54-.03-5.61-.03-11.02,0-17.73.71-21.77,2.32-2.56,1.01-4.89,2.53-6.84,4.46-1.98,1.96-3.52,4.31-4.51,6.91-2.44,6.21-2.34,18.3-2.27,27.13v.29c0,.68,0,1.35.02,1.98v1.49c0,1.02,0,2.17-.03,3.43v.34c-.07,8.83-.16,20.93,2.27,27.13,1.01,2.57,2.54,4.91,4.48,6.87,1.96,1.98,4.31,3.52,6.91,4.52,4.07,1.59,10.87,2.31,22.07,2.31,1.92,0,3.75-.02,5.32-.04.69,0,1.35,0,1.98-.02h1.53M50.26,72.77c-12.56.08-22.8-10.04-22.88-22.6-.07-10.94,7.66-20.37,18.4-22.46,1.45-.29,2.93-.44,4.42-.44,4.49,0,8.88,1.33,12.62,3.82l.05.07c10.44,6.96,13.26,21.06,6.3,31.5-1.66,2.49-3.8,4.64-6.3,6.3-2.48,1.66-5.27,2.81-8.2,3.37-1.45.29-2.93.43-4.42.43M39.13,33.44c-9.32,5.89-12.1,18.23-6.2,27.55,3.66,5.79,10.03,9.3,16.88,9.3h0c4.12,0,8.14-1.26,11.51-3.64,9.32-5.9,12.1-18.23,6.21-27.56-5.9-9.32-18.23-12.1-27.56-6.21-.28.18-.56.37-.84.56M77.21,25.97c-.56,0-1.11-.16-1.58-.47l-.06-.02c-.48-.33-.85-.79-1.09-1.33-.43-1.09-.17-2.33.67-3.16.38-.38.87-.63,1.4-.73.2-.04.41-.06.62-.06.36,0,.72.07,1.06.21.54.22,1.01.6,1.34,1.08.31.47.47,1.02.47,1.58,0,.4-.08.79-.22,1.15-.16.35-.38.67-.65.95-.27.26-.58.46-.92.6-.33.14-.69.21-1.04.21"/>
    </g>
  </g>
</svg>