<?xml version="1.0" encoding="UTF-8"?>
<svg id="Layer_1" xmlns="http://www.w3.org/2000/svg" version="1.1" viewBox="0 0 100 100">
  <!-- Generator: Adobe Illustrator 30.4.0, SVG Export Plug-In . SVG Version: 2.1.4 Build 226)  -->
  <defs>
    <style>
      .st0 {
        fill: none;
      }

      .st1 {
        fill: #ebe6df;
      }
    </style>
  </defs>
  <g id="Group_171">
    <path id="Path_37" class="st1" d="M50.01,97.33c-8.94,0-16.85-.14-20.65-.35-8.75-.44-14.45-2.61-19.09-7.26s-6.82-10.35-7.23-19.06c-.47-8.33-.47-33.03,0-41.33.44-8.76,2.6-14.47,7.22-19.09,4.61-4.62,10.47-6.82,19.06-7.22,3.83-.21,11.74-.35,20.69-.35s16.85.14,20.65.35c8.76.44,14.46,2.61,19.08,7.22,4.62,4.62,6.81,10.35,7.22,19.06v.03c.47,8.26.47,32.94,0,41.27-.44,8.77-2.61,14.47-7.22,19.09l-.02.05c-4.64,4.63-10.34,6.79-19.05,7.23-3.82.22-11.73.35-20.67.35M50,94.51c1.05,0,2.23,0,3.52.03h.04c1.49.02,3.53.04,5.6.04,11.02,0,17.73-.71,21.77-2.32,2.56-1.01,4.89-2.53,6.85-4.47,1.98-1.96,3.52-4.31,4.51-6.91,2.32-5.8,2.39-16.69,2.27-27.36,0-.71,0-1.39-.02-2.04v-1.54c0-1.03,0-2.21.03-3.52v-.04c.13-10.65.05-21.55-2.27-27.4-1.02-2.56-2.54-4.89-4.49-6.85l-.04.02c-1.96-1.94-4.3-3.46-6.87-4.47-4.08-1.59-10.87-2.3-22.06-2.3-1.92,0-3.75.02-5.33.04-.69,0-1.35,0-1.98.02h-1.53c-1.05,0-2.23,0-3.52-.03h-.04c-1.48,0-3.54-.03-5.61-.03-11.02,0-17.73.71-21.77,2.32-2.56,1.01-4.89,2.53-6.84,4.46-1.98,1.96-3.52,4.31-4.51,6.91-2.44,6.21-2.34,18.3-2.27,27.13v.29c0,.68,0,1.35.02,1.98v1.49c0,1.02,0,2.17-.03,3.43v.34c-.07,8.83-.16,20.93,2.27,27.13,1.01,2.57,2.54,4.91,4.48,6.87,1.96,1.98,4.31,3.52,6.91,4.52,4.07,1.59,10.87,2.31,22.07,2.31,1.92,0,3.75-.02,5.32-.04.69,0,1.35,0,1.98-.02h1.53"/>
    <g id="Path_38">
      <path class="st0" d="M38.97,64.49v-28.99l25.47,14.49-25.47,14.49Z"/>
      <path class="st1" d="M38.97,64.49l25.47-14.49-25.47-14.49v28.99M35.81,69.92V30.08l35.01,19.92-35.01,19.92Z"/>
    </g>
  </g>
</svg>